<mxfile host="65bd71144e">
    <diagram id="Fdq3Jwrr0xsqzrVo4tWw" name="PÃ¡gina-1">
        <mxGraphModel dx="1560" dy="553" grid="0" gridSize="10" guides="1" tooltips="1" connect="1" arrows="1" fold="1" page="0" pageScale="1" pageWidth="827" pageHeight="1169" math="0" shadow="0">
            <root>
                <mxCell id="0"/>
                <mxCell id="1" parent="0"/>
                <mxCell id="6" value="&lt;div style=&quot;color: rgb(248, 248, 242); background-color: rgb(40, 42, 54); font-family: Consolas, &amp;quot;Courier New&amp;quot;, monospace; font-weight: normal; font-size: 14px; line-height: 19px; white-space-collapse: preserve;&quot;&gt;&lt;span style=&quot;color: #6272a4;&quot;&gt;((1 (2 3)) (4 (5 6)) (7 (8 9)))&lt;/span&gt;&lt;/div&gt;" style="text;html=1;align=center;verticalAlign=middle;resizable=0;points=[];autosize=1;strokeColor=none;fillColor=none;rounded=0;fontStyle=1" vertex="1" parent="1">
                    <mxGeometry x="-66" y="82" width="257" height="31" as="geometry"/>
                </mxCell>
                <mxCell id="7" value="" style="rounded=0;whiteSpace=wrap;html=1;" vertex="1" parent="1">
                    <mxGeometry x="-52" y="162" width="70" height="40" as="geometry"/>
                </mxCell>
                <mxCell id="8" value="" style="edgeStyle=none;html=1;rounded=0;" edge="1" parent="1" source="9">
                    <mxGeometry relative="1" as="geometry">
                        <mxPoint x="-17" y="252" as="targetPoint"/>
                    </mxGeometry>
                </mxCell>
                <mxCell id="9" value="" style="ellipse;whiteSpace=wrap;html=1;aspect=fixed;fillColor=#000000;rounded=0;" vertex="1" parent="1">
                    <mxGeometry x="-27" y="172" width="20" height="20" as="geometry"/>
                </mxCell>
                <mxCell id="10" value="" style="rounded=0;whiteSpace=wrap;html=1;" vertex="1" parent="1">
                    <mxGeometry x="18" y="162" width="70" height="40" as="geometry"/>
                </mxCell>
                <mxCell id="11" value="" style="edgeStyle=none;html=1;rounded=0;" edge="1" parent="1" source="12">
                    <mxGeometry relative="1" as="geometry">
                        <mxPoint x="558" y="182" as="targetPoint"/>
                    </mxGeometry>
                </mxCell>
                <mxCell id="12" value="" style="ellipse;whiteSpace=wrap;html=1;aspect=fixed;fillColor=#000000;rounded=0;" vertex="1" parent="1">
                    <mxGeometry x="43" y="172" width="20" height="20" as="geometry"/>
                </mxCell>
                <mxCell id="15" value="" style="rounded=0;whiteSpace=wrap;html=1;" vertex="1" parent="1">
                    <mxGeometry x="-52" y="253" width="70" height="40" as="geometry"/>
                </mxCell>
                <mxCell id="16" value="" style="edgeStyle=none;html=1;rounded=0;" edge="1" parent="1">
                    <mxGeometry relative="1" as="geometry">
                        <mxPoint x="-17" y="283" as="sourcePoint"/>
                        <mxPoint x="-17" y="343" as="targetPoint"/>
                    </mxGeometry>
                </mxCell>
                <mxCell id="17" value="" style="rounded=0;whiteSpace=wrap;html=1;" vertex="1" parent="1">
                    <mxGeometry x="18" y="253" width="70" height="40" as="geometry"/>
                </mxCell>
                <mxCell id="19" value="" style="ellipse;whiteSpace=wrap;html=1;aspect=fixed;fillColor=#000000;rounded=0;" vertex="1" parent="1">
                    <mxGeometry x="43" y="263" width="20" height="20" as="geometry"/>
                </mxCell>
                <mxCell id="20" value="" style="ellipse;whiteSpace=wrap;html=1;aspect=fixed;fillColor=#000000;rounded=0;" vertex="1" parent="1">
                    <mxGeometry x="-27" y="263" width="20" height="20" as="geometry"/>
                </mxCell>
                <mxCell id="80" value="1" style="text;html=1;align=center;verticalAlign=middle;resizable=0;points=[];autosize=1;strokeColor=none;fillColor=none;rounded=0;" vertex="1" parent="1">
                    <mxGeometry x="-29" y="341" width="25" height="26" as="geometry"/>
                </mxCell>
                <mxCell id="81" value="" style="edgeStyle=none;html=1;rounded=0;" edge="1" parent="1">
                    <mxGeometry relative="1" as="geometry">
                        <mxPoint x="138" y="272.58" as="targetPoint"/>
                        <mxPoint x="63" y="272.58" as="sourcePoint"/>
                    </mxGeometry>
                </mxCell>
                <mxCell id="82" value="" style="rounded=0;whiteSpace=wrap;html=1;" vertex="1" parent="1">
                    <mxGeometry x="138" y="253" width="70" height="40" as="geometry"/>
                </mxCell>
                <mxCell id="83" value="" style="edgeStyle=none;html=1;rounded=0;" edge="1" parent="1" source="84">
                    <mxGeometry relative="1" as="geometry">
                        <mxPoint x="173" y="343" as="targetPoint"/>
                    </mxGeometry>
                </mxCell>
                <mxCell id="84" value="" style="ellipse;whiteSpace=wrap;html=1;aspect=fixed;fillColor=#000000;rounded=0;" vertex="1" parent="1">
                    <mxGeometry x="163" y="263" width="20" height="20" as="geometry"/>
                </mxCell>
                <mxCell id="85" value="" style="rounded=0;whiteSpace=wrap;html=1;" vertex="1" parent="1">
                    <mxGeometry x="208" y="253" width="70" height="40" as="geometry"/>
                </mxCell>
                <mxCell id="86" value="" style="edgeStyle=none;html=1;rounded=0;" edge="1" parent="1" source="87">
                    <mxGeometry relative="1" as="geometry">
                        <mxPoint x="515" y="273" as="targetPoint"/>
                    </mxGeometry>
                </mxCell>
                <mxCell id="87" value="" style="ellipse;whiteSpace=wrap;html=1;aspect=fixed;fillColor=#000000;rounded=0;" vertex="1" parent="1">
                    <mxGeometry x="233" y="263" width="20" height="20" as="geometry"/>
                </mxCell>
                <mxCell id="88" value="NIL" style="text;html=1;align=center;verticalAlign=middle;resizable=0;points=[];autosize=1;strokeColor=none;fillColor=none;rounded=0;" vertex="1" parent="1">
                    <mxGeometry x="516" y="258" width="40" height="30" as="geometry"/>
                </mxCell>
                <mxCell id="89" value="" style="rounded=0;whiteSpace=wrap;html=1;" vertex="1" parent="1">
                    <mxGeometry x="138" y="344" width="70" height="40" as="geometry"/>
                </mxCell>
                <mxCell id="90" value="" style="edgeStyle=none;html=1;rounded=0;" edge="1" parent="1">
                    <mxGeometry relative="1" as="geometry">
                        <mxPoint x="173" y="374" as="sourcePoint"/>
                        <mxPoint x="173" y="434" as="targetPoint"/>
                    </mxGeometry>
                </mxCell>
                <mxCell id="91" value="" style="rounded=0;whiteSpace=wrap;html=1;" vertex="1" parent="1">
                    <mxGeometry x="208" y="344" width="70" height="40" as="geometry"/>
                </mxCell>
                <mxCell id="92" value="" style="ellipse;whiteSpace=wrap;html=1;aspect=fixed;fillColor=#000000;rounded=0;" vertex="1" parent="1">
                    <mxGeometry x="233" y="354" width="20" height="20" as="geometry"/>
                </mxCell>
                <mxCell id="93" value="" style="ellipse;whiteSpace=wrap;html=1;aspect=fixed;fillColor=#000000;rounded=0;" vertex="1" parent="1">
                    <mxGeometry x="163" y="354" width="20" height="20" as="geometry"/>
                </mxCell>
                <mxCell id="94" value="" style="edgeStyle=none;html=1;rounded=0;" edge="1" parent="1">
                    <mxGeometry relative="1" as="geometry">
                        <mxPoint x="328" y="363.58" as="targetPoint"/>
                        <mxPoint x="253" y="363.58" as="sourcePoint"/>
                    </mxGeometry>
                </mxCell>
                <mxCell id="95" value="2" style="text;html=1;align=center;verticalAlign=middle;resizable=0;points=[];autosize=1;strokeColor=none;fillColor=none;rounded=0;" vertex="1" parent="1">
                    <mxGeometry x="160.5" y="433" width="25" height="26" as="geometry"/>
                </mxCell>
                <mxCell id="96" value="" style="rounded=0;whiteSpace=wrap;html=1;" vertex="1" parent="1">
                    <mxGeometry x="328" y="344" width="70" height="40" as="geometry"/>
                </mxCell>
                <mxCell id="97" value="" style="edgeStyle=none;html=1;rounded=0;" edge="1" parent="1">
                    <mxGeometry relative="1" as="geometry">
                        <mxPoint x="363" y="374" as="sourcePoint"/>
                        <mxPoint x="363" y="434" as="targetPoint"/>
                    </mxGeometry>
                </mxCell>
                <mxCell id="98" value="" style="rounded=0;whiteSpace=wrap;html=1;" vertex="1" parent="1">
                    <mxGeometry x="398" y="344" width="70" height="40" as="geometry"/>
                </mxCell>
                <mxCell id="99" value="" style="ellipse;whiteSpace=wrap;html=1;aspect=fixed;fillColor=#000000;rounded=0;" vertex="1" parent="1">
                    <mxGeometry x="423" y="354" width="20" height="20" as="geometry"/>
                </mxCell>
                <mxCell id="100" value="" style="ellipse;whiteSpace=wrap;html=1;aspect=fixed;fillColor=#000000;rounded=0;" vertex="1" parent="1">
                    <mxGeometry x="353" y="354" width="20" height="20" as="geometry"/>
                </mxCell>
                <mxCell id="101" value="" style="edgeStyle=none;html=1;rounded=0;" edge="1" parent="1">
                    <mxGeometry relative="1" as="geometry">
                        <mxPoint x="518" y="363.58" as="targetPoint"/>
                        <mxPoint x="443" y="363.58" as="sourcePoint"/>
                    </mxGeometry>
                </mxCell>
                <mxCell id="102" value="3" style="text;html=1;align=center;verticalAlign=middle;resizable=0;points=[];autosize=1;strokeColor=none;fillColor=none;rounded=0;" vertex="1" parent="1">
                    <mxGeometry x="350.5" y="433" width="25" height="26" as="geometry"/>
                </mxCell>
                <mxCell id="103" value="NIL" style="text;html=1;align=center;verticalAlign=middle;resizable=0;points=[];autosize=1;strokeColor=none;fillColor=none;rounded=0;" vertex="1" parent="1">
                    <mxGeometry x="516" y="349" width="40" height="30" as="geometry"/>
                </mxCell>
                <mxCell id="104" value="" style="rounded=0;whiteSpace=wrap;html=1;" vertex="1" parent="1">
                    <mxGeometry x="559" y="162" width="70" height="40" as="geometry"/>
                </mxCell>
                <mxCell id="105" value="" style="edgeStyle=none;html=1;rounded=0;" edge="1" parent="1" source="106">
                    <mxGeometry relative="1" as="geometry">
                        <mxPoint x="594" y="252" as="targetPoint"/>
                    </mxGeometry>
                </mxCell>
                <mxCell id="106" value="" style="ellipse;whiteSpace=wrap;html=1;aspect=fixed;fillColor=#000000;rounded=0;" vertex="1" parent="1">
                    <mxGeometry x="584" y="172" width="20" height="20" as="geometry"/>
                </mxCell>
                <mxCell id="107" value="" style="rounded=0;whiteSpace=wrap;html=1;" vertex="1" parent="1">
                    <mxGeometry x="629" y="162" width="70" height="40" as="geometry"/>
                </mxCell>
                <mxCell id="108" value="" style="ellipse;whiteSpace=wrap;html=1;aspect=fixed;fillColor=#000000;rounded=0;" vertex="1" parent="1">
                    <mxGeometry x="654" y="172" width="20" height="20" as="geometry"/>
                </mxCell>
                <mxCell id="109" value="" style="rounded=0;whiteSpace=wrap;html=1;" vertex="1" parent="1">
                    <mxGeometry x="559" y="253" width="70" height="40" as="geometry"/>
                </mxCell>
                <mxCell id="110" value="" style="edgeStyle=none;html=1;rounded=0;" edge="1" parent="1">
                    <mxGeometry relative="1" as="geometry">
                        <mxPoint x="594" y="283" as="sourcePoint"/>
                        <mxPoint x="594" y="343" as="targetPoint"/>
                    </mxGeometry>
                </mxCell>
                <mxCell id="111" value="" style="rounded=0;whiteSpace=wrap;html=1;" vertex="1" parent="1">
                    <mxGeometry x="629" y="253" width="70" height="40" as="geometry"/>
                </mxCell>
                <mxCell id="112" value="" style="ellipse;whiteSpace=wrap;html=1;aspect=fixed;fillColor=#000000;rounded=0;" vertex="1" parent="1">
                    <mxGeometry x="654" y="263" width="20" height="20" as="geometry"/>
                </mxCell>
                <mxCell id="113" value="" style="ellipse;whiteSpace=wrap;html=1;aspect=fixed;fillColor=#000000;rounded=0;" vertex="1" parent="1">
                    <mxGeometry x="584" y="263" width="20" height="20" as="geometry"/>
                </mxCell>
                <mxCell id="114" value="4" style="text;html=1;align=center;verticalAlign=middle;resizable=0;points=[];autosize=1;strokeColor=none;fillColor=none;rounded=0;" vertex="1" parent="1">
                    <mxGeometry x="582" y="341" width="25" height="26" as="geometry"/>
                </mxCell>
                <mxCell id="115" value="" style="edgeStyle=none;html=1;rounded=0;" edge="1" parent="1">
                    <mxGeometry relative="1" as="geometry">
                        <mxPoint x="749" y="272.58" as="targetPoint"/>
                        <mxPoint x="674" y="272.58" as="sourcePoint"/>
                    </mxGeometry>
                </mxCell>
                <mxCell id="116" value="" style="rounded=0;whiteSpace=wrap;html=1;" vertex="1" parent="1">
                    <mxGeometry x="750" y="253" width="70" height="40" as="geometry"/>
                </mxCell>
                <mxCell id="117" value="" style="edgeStyle=none;html=1;rounded=0;" edge="1" parent="1" source="118">
                    <mxGeometry relative="1" as="geometry">
                        <mxPoint x="785" y="343" as="targetPoint"/>
                    </mxGeometry>
                </mxCell>
                <mxCell id="118" value="" style="ellipse;whiteSpace=wrap;html=1;aspect=fixed;fillColor=#000000;rounded=0;" vertex="1" parent="1">
                    <mxGeometry x="775" y="263" width="20" height="20" as="geometry"/>
                </mxCell>
                <mxCell id="119" value="" style="rounded=0;whiteSpace=wrap;html=1;" vertex="1" parent="1">
                    <mxGeometry x="820" y="253" width="70" height="40" as="geometry"/>
                </mxCell>
                <mxCell id="120" value="" style="edgeStyle=none;html=1;rounded=0;" edge="1" parent="1" source="121">
                    <mxGeometry relative="1" as="geometry">
                        <mxPoint x="1127" y="273" as="targetPoint"/>
                    </mxGeometry>
                </mxCell>
                <mxCell id="121" value="" style="ellipse;whiteSpace=wrap;html=1;aspect=fixed;fillColor=#000000;rounded=0;" vertex="1" parent="1">
                    <mxGeometry x="845" y="263" width="20" height="20" as="geometry"/>
                </mxCell>
                <mxCell id="122" value="NIL" style="text;html=1;align=center;verticalAlign=middle;resizable=0;points=[];autosize=1;strokeColor=none;fillColor=none;rounded=0;" vertex="1" parent="1">
                    <mxGeometry x="1128" y="258" width="40" height="30" as="geometry"/>
                </mxCell>
                <mxCell id="123" value="" style="rounded=0;whiteSpace=wrap;html=1;" vertex="1" parent="1">
                    <mxGeometry x="750" y="344" width="70" height="40" as="geometry"/>
                </mxCell>
                <mxCell id="124" value="" style="edgeStyle=none;html=1;rounded=0;" edge="1" parent="1">
                    <mxGeometry relative="1" as="geometry">
                        <mxPoint x="785" y="374" as="sourcePoint"/>
                        <mxPoint x="785" y="434" as="targetPoint"/>
                    </mxGeometry>
                </mxCell>
                <mxCell id="125" value="" style="rounded=0;whiteSpace=wrap;html=1;" vertex="1" parent="1">
                    <mxGeometry x="820" y="344" width="70" height="40" as="geometry"/>
                </mxCell>
                <mxCell id="126" value="" style="ellipse;whiteSpace=wrap;html=1;aspect=fixed;fillColor=#000000;rounded=0;" vertex="1" parent="1">
                    <mxGeometry x="845" y="354" width="20" height="20" as="geometry"/>
                </mxCell>
                <mxCell id="127" value="" style="ellipse;whiteSpace=wrap;html=1;aspect=fixed;fillColor=#000000;rounded=0;" vertex="1" parent="1">
                    <mxGeometry x="775" y="354" width="20" height="20" as="geometry"/>
                </mxCell>
                <mxCell id="128" value="" style="edgeStyle=none;html=1;rounded=0;" edge="1" parent="1">
                    <mxGeometry relative="1" as="geometry">
                        <mxPoint x="940" y="363.58" as="targetPoint"/>
                        <mxPoint x="865" y="363.58" as="sourcePoint"/>
                    </mxGeometry>
                </mxCell>
                <mxCell id="129" value="5" style="text;html=1;align=center;verticalAlign=middle;resizable=0;points=[];autosize=1;strokeColor=none;fillColor=none;rounded=0;" vertex="1" parent="1">
                    <mxGeometry x="772.5" y="433" width="25" height="26" as="geometry"/>
                </mxCell>
                <mxCell id="130" value="" style="rounded=0;whiteSpace=wrap;html=1;" vertex="1" parent="1">
                    <mxGeometry x="940" y="344" width="70" height="40" as="geometry"/>
                </mxCell>
                <mxCell id="131" value="" style="edgeStyle=none;html=1;rounded=0;" edge="1" parent="1">
                    <mxGeometry relative="1" as="geometry">
                        <mxPoint x="975" y="374" as="sourcePoint"/>
                        <mxPoint x="975" y="434" as="targetPoint"/>
                    </mxGeometry>
                </mxCell>
                <mxCell id="132" value="" style="rounded=0;whiteSpace=wrap;html=1;" vertex="1" parent="1">
                    <mxGeometry x="1010" y="344" width="70" height="40" as="geometry"/>
                </mxCell>
                <mxCell id="133" value="" style="ellipse;whiteSpace=wrap;html=1;aspect=fixed;fillColor=#000000;rounded=0;" vertex="1" parent="1">
                    <mxGeometry x="1035" y="354" width="20" height="20" as="geometry"/>
                </mxCell>
                <mxCell id="134" value="" style="ellipse;whiteSpace=wrap;html=1;aspect=fixed;fillColor=#000000;rounded=0;" vertex="1" parent="1">
                    <mxGeometry x="965" y="354" width="20" height="20" as="geometry"/>
                </mxCell>
                <mxCell id="135" value="" style="edgeStyle=none;html=1;rounded=0;" edge="1" parent="1">
                    <mxGeometry relative="1" as="geometry">
                        <mxPoint x="1130" y="363.58" as="targetPoint"/>
                        <mxPoint x="1055" y="363.58" as="sourcePoint"/>
                    </mxGeometry>
                </mxCell>
                <mxCell id="136" value="6" style="text;html=1;align=center;verticalAlign=middle;resizable=0;points=[];autosize=1;strokeColor=none;fillColor=none;rounded=0;" vertex="1" parent="1">
                    <mxGeometry x="962.5" y="433" width="25" height="26" as="geometry"/>
                </mxCell>
                <mxCell id="137" value="NIL" style="text;html=1;align=center;verticalAlign=middle;resizable=0;points=[];autosize=1;strokeColor=none;fillColor=none;rounded=0;" vertex="1" parent="1">
                    <mxGeometry x="1128" y="349" width="40" height="30" as="geometry"/>
                </mxCell>
                <mxCell id="138" value="" style="rounded=0;whiteSpace=wrap;html=1;" vertex="1" parent="1">
                    <mxGeometry x="1168" y="162" width="70" height="40" as="geometry"/>
                </mxCell>
                <mxCell id="139" value="" style="edgeStyle=none;html=1;rounded=0;" edge="1" parent="1" source="140">
                    <mxGeometry relative="1" as="geometry">
                        <mxPoint x="1203" y="252" as="targetPoint"/>
                    </mxGeometry>
                </mxCell>
                <mxCell id="140" value="" style="ellipse;whiteSpace=wrap;html=1;aspect=fixed;fillColor=#000000;rounded=0;" vertex="1" parent="1">
                    <mxGeometry x="1193" y="172" width="20" height="20" as="geometry"/>
                </mxCell>
                <mxCell id="141" value="" style="rounded=0;whiteSpace=wrap;html=1;" vertex="1" parent="1">
                    <mxGeometry x="1238" y="162" width="70" height="40" as="geometry"/>
                </mxCell>
                <mxCell id="142" value="" style="ellipse;whiteSpace=wrap;html=1;aspect=fixed;fillColor=#000000;rounded=0;" vertex="1" parent="1">
                    <mxGeometry x="1263" y="172" width="20" height="20" as="geometry"/>
                </mxCell>
                <mxCell id="143" value="" style="rounded=0;whiteSpace=wrap;html=1;" vertex="1" parent="1">
                    <mxGeometry x="1168" y="253" width="70" height="40" as="geometry"/>
                </mxCell>
                <mxCell id="144" value="" style="edgeStyle=none;html=1;rounded=0;" edge="1" parent="1">
                    <mxGeometry relative="1" as="geometry">
                        <mxPoint x="1203" y="283" as="sourcePoint"/>
                        <mxPoint x="1203" y="343" as="targetPoint"/>
                    </mxGeometry>
                </mxCell>
                <mxCell id="145" value="" style="rounded=0;whiteSpace=wrap;html=1;" vertex="1" parent="1">
                    <mxGeometry x="1238" y="253" width="70" height="40" as="geometry"/>
                </mxCell>
                <mxCell id="146" value="" style="ellipse;whiteSpace=wrap;html=1;aspect=fixed;fillColor=#000000;rounded=0;" vertex="1" parent="1">
                    <mxGeometry x="1263" y="263" width="20" height="20" as="geometry"/>
                </mxCell>
                <mxCell id="147" value="" style="ellipse;whiteSpace=wrap;html=1;aspect=fixed;fillColor=#000000;rounded=0;" vertex="1" parent="1">
                    <mxGeometry x="1193" y="263" width="20" height="20" as="geometry"/>
                </mxCell>
                <mxCell id="148" value="4" style="text;html=1;align=center;verticalAlign=middle;resizable=0;points=[];autosize=1;strokeColor=none;fillColor=none;rounded=0;" vertex="1" parent="1">
                    <mxGeometry x="1191" y="341" width="25" height="26" as="geometry"/>
                </mxCell>
                <mxCell id="149" value="" style="edgeStyle=none;html=1;rounded=0;" edge="1" parent="1">
                    <mxGeometry relative="1" as="geometry">
                        <mxPoint x="1358" y="272.58" as="targetPoint"/>
                        <mxPoint x="1283" y="272.58" as="sourcePoint"/>
                    </mxGeometry>
                </mxCell>
                <mxCell id="150" value="" style="rounded=0;whiteSpace=wrap;html=1;" vertex="1" parent="1">
                    <mxGeometry x="1359" y="253" width="70" height="40" as="geometry"/>
                </mxCell>
                <mxCell id="151" value="" style="edgeStyle=none;html=1;rounded=0;" edge="1" parent="1" source="152">
                    <mxGeometry relative="1" as="geometry">
                        <mxPoint x="1394" y="343" as="targetPoint"/>
                    </mxGeometry>
                </mxCell>
                <mxCell id="152" value="" style="ellipse;whiteSpace=wrap;html=1;aspect=fixed;fillColor=#000000;rounded=0;" vertex="1" parent="1">
                    <mxGeometry x="1384" y="263" width="20" height="20" as="geometry"/>
                </mxCell>
                <mxCell id="153" value="" style="rounded=0;whiteSpace=wrap;html=1;" vertex="1" parent="1">
                    <mxGeometry x="1429" y="253" width="70" height="40" as="geometry"/>
                </mxCell>
                <mxCell id="154" value="" style="edgeStyle=none;html=1;rounded=0;" edge="1" parent="1" source="155">
                    <mxGeometry relative="1" as="geometry">
                        <mxPoint x="1736" y="273" as="targetPoint"/>
                    </mxGeometry>
                </mxCell>
                <mxCell id="155" value="" style="ellipse;whiteSpace=wrap;html=1;aspect=fixed;fillColor=#000000;rounded=0;" vertex="1" parent="1">
                    <mxGeometry x="1454" y="263" width="20" height="20" as="geometry"/>
                </mxCell>
                <mxCell id="156" value="NIL" style="text;html=1;align=center;verticalAlign=middle;resizable=0;points=[];autosize=1;strokeColor=none;fillColor=none;rounded=0;" vertex="1" parent="1">
                    <mxGeometry x="1737" y="258" width="40" height="30" as="geometry"/>
                </mxCell>
                <mxCell id="157" value="" style="rounded=0;whiteSpace=wrap;html=1;" vertex="1" parent="1">
                    <mxGeometry x="1359" y="344" width="70" height="40" as="geometry"/>
                </mxCell>
                <mxCell id="158" value="" style="edgeStyle=none;html=1;rounded=0;" edge="1" parent="1">
                    <mxGeometry relative="1" as="geometry">
                        <mxPoint x="1394" y="374" as="sourcePoint"/>
                        <mxPoint x="1394" y="434" as="targetPoint"/>
                    </mxGeometry>
                </mxCell>
                <mxCell id="159" value="" style="rounded=0;whiteSpace=wrap;html=1;" vertex="1" parent="1">
                    <mxGeometry x="1429" y="344" width="70" height="40" as="geometry"/>
                </mxCell>
                <mxCell id="160" value="" style="ellipse;whiteSpace=wrap;html=1;aspect=fixed;fillColor=#000000;rounded=0;" vertex="1" parent="1">
                    <mxGeometry x="1454" y="354" width="20" height="20" as="geometry"/>
                </mxCell>
                <mxCell id="161" value="" style="ellipse;whiteSpace=wrap;html=1;aspect=fixed;fillColor=#000000;rounded=0;" vertex="1" parent="1">
                    <mxGeometry x="1384" y="354" width="20" height="20" as="geometry"/>
                </mxCell>
                <mxCell id="162" value="" style="edgeStyle=none;html=1;rounded=0;" edge="1" parent="1">
                    <mxGeometry relative="1" as="geometry">
                        <mxPoint x="1549" y="363.58" as="targetPoint"/>
                        <mxPoint x="1474" y="363.58" as="sourcePoint"/>
                    </mxGeometry>
                </mxCell>
                <mxCell id="163" value="5" style="text;html=1;align=center;verticalAlign=middle;resizable=0;points=[];autosize=1;strokeColor=none;fillColor=none;rounded=0;" vertex="1" parent="1">
                    <mxGeometry x="1381.5" y="433" width="25" height="26" as="geometry"/>
                </mxCell>
                <mxCell id="164" value="" style="rounded=0;whiteSpace=wrap;html=1;" vertex="1" parent="1">
                    <mxGeometry x="1549" y="344" width="70" height="40" as="geometry"/>
                </mxCell>
                <mxCell id="165" value="" style="edgeStyle=none;html=1;rounded=0;" edge="1" parent="1">
                    <mxGeometry relative="1" as="geometry">
                        <mxPoint x="1584" y="374" as="sourcePoint"/>
                        <mxPoint x="1584" y="434" as="targetPoint"/>
                    </mxGeometry>
                </mxCell>
                <mxCell id="166" value="" style="rounded=0;whiteSpace=wrap;html=1;" vertex="1" parent="1">
                    <mxGeometry x="1619" y="344" width="70" height="40" as="geometry"/>
                </mxCell>
                <mxCell id="167" value="" style="ellipse;whiteSpace=wrap;html=1;aspect=fixed;fillColor=#000000;rounded=0;" vertex="1" parent="1">
                    <mxGeometry x="1644" y="354" width="20" height="20" as="geometry"/>
                </mxCell>
                <mxCell id="168" value="" style="ellipse;whiteSpace=wrap;html=1;aspect=fixed;fillColor=#000000;rounded=0;" vertex="1" parent="1">
                    <mxGeometry x="1574" y="354" width="20" height="20" as="geometry"/>
                </mxCell>
                <mxCell id="169" value="" style="edgeStyle=none;html=1;rounded=0;" edge="1" parent="1">
                    <mxGeometry relative="1" as="geometry">
                        <mxPoint x="1739" y="363.58" as="targetPoint"/>
                        <mxPoint x="1664" y="363.58" as="sourcePoint"/>
                    </mxGeometry>
                </mxCell>
                <mxCell id="170" value="6" style="text;html=1;align=center;verticalAlign=middle;resizable=0;points=[];autosize=1;strokeColor=none;fillColor=none;rounded=0;" vertex="1" parent="1">
                    <mxGeometry x="1571.5" y="433" width="25" height="26" as="geometry"/>
                </mxCell>
                <mxCell id="171" value="NIL" style="text;html=1;align=center;verticalAlign=middle;resizable=0;points=[];autosize=1;strokeColor=none;fillColor=none;rounded=0;" vertex="1" parent="1">
                    <mxGeometry x="1737" y="349" width="40" height="30" as="geometry"/>
                </mxCell>
                <mxCell id="172" value="" style="edgeStyle=none;html=1;rounded=0;" edge="1" parent="1">
                    <mxGeometry relative="1" as="geometry">
                        <mxPoint x="1169" y="181.5" as="targetPoint"/>
                        <mxPoint x="674" y="181.5" as="sourcePoint"/>
                    </mxGeometry>
                </mxCell>
                <mxCell id="173" value="" style="edgeStyle=none;html=1;rounded=0;entryX=0.075;entryY=0.5;entryDx=0;entryDy=0;entryPerimeter=0;" edge="1" parent="1" target="174">
                    <mxGeometry relative="1" as="geometry">
                        <mxPoint x="1734" y="182" as="targetPoint"/>
                        <mxPoint x="1283" y="181.5" as="sourcePoint"/>
                    </mxGeometry>
                </mxCell>
                <mxCell id="174" value="NIL" style="text;html=1;align=center;verticalAlign=middle;resizable=0;points=[];autosize=1;strokeColor=none;fillColor=none;rounded=0;" vertex="1" parent="1">
                    <mxGeometry x="1814" y="167" width="40" height="30" as="geometry"/>
                </mxCell>
            </root>
        </mxGraphModel>
    </diagram>
</mxfile>